<svg width="379" height="354" viewBox="0 0 379 354" fill="none" xmlns="http://www.w3.org/2000/svg">
<path d="M342.388 148.048C342.212 130.561 341.468 116.619 340.858 107.449C339.587 88.3254 342.432 69.1498 343.153 49.9976C343.207 48.5661 343.358 44.4479 346.213 41.5714C346.604 41.1778 349.989 37.8749 354.245 38.8904C356.474 39.4225 357.874 40.8852 358.452 41.5714C358.455 46.7578 358.332 54.4605 357.687 63.7862C357.081 72.5522 356.433 74.888 354.627 91.7456C351.796 118.18 351.398 123.512 351.185 130.047C350.928 137.944 351.042 144.454 351.185 148.814C350.196 150.37 348.427 151.256 346.596 151.112C344.735 150.965 343.106 149.779 342.388 148.048Z" fill="#CF9490"/>
<path d="M8.50171 41.1883C8.69525 43.5581 8.81363 42.2083 10.7966 51.1463C11.0011 52.0672 11.3554 53.6849 12.7089 54.9764C13.056 55.3078 14.2002 56.3153 15.7687 56.5083C18.1561 56.8021 20.8402 55.1229 21.8882 53.0614C23.8385 49.2236 19.0268 46.2092 18.0636 37.3582C17.8034 34.9681 17.3679 31.418 18.8285 27.4001C19.3133 26.0665 21.6264 20.2157 26.4777 18.208C33.3475 15.3648 42.8387 21.2487 47.513 27.7833C54.9448 38.1735 51.6535 52.2428 49.0426 63.403C46.3255 75.0187 43.0504 78.246 39.4811 95.1926C38.0472 102.002 37.421 106.965 38.7163 112.811C40.3575 120.217 45.138 129.289 50.5723 129.663C50.9828 129.691 52.4277 129.791 53.2495 128.897C54.9129 127.088 52.5909 122.766 51.3372 119.705C46.5619 108.046 49.5675 95.829 50.5723 91.7456C51.0685 89.7286 50.9 91.061 55.1618 79.8725C58.9011 70.0561 60.7706 65.1477 61.6635 61.8711C63.0695 56.7114 65.7378 46.9213 63.1932 35.4435C62.112 30.5654 59.6991 19.6812 49.8071 12.4629C47.3861 10.6963 35.5996 2.64158 24.1823 7.48364C16.3145 10.8205 12.936 18.452 11.1789 22.4209C7.60556 30.4922 8.22818 37.8376 8.50171 41.1883Z" fill="#CF9490"/>
<path d="M356.206 170.982C355.168 172.946 352.819 174.555 350.312 174.425C346.809 174.243 344.281 170.729 343.928 167.54C343.432 163.062 347.156 158.639 350.312 158.687C354.412 158.749 358.64 166.374 356.206 170.982Z" fill="#CF9490"/>
<path d="M70.4533 149.71C70.7345 153.782 68.7487 158.883 64.8461 160.175C59.5949 161.912 52.197 156.314 52.1028 149.71C52.0325 144.791 56.0131 139.236 61.2781 139.245C66.6384 139.255 70.1297 145.026 70.4533 149.71Z" fill="#CF9490"/>
<path d="M2 208.18C2.18505 209.014 3.29372 213.634 7.7369 216.223C8.31225 216.559 13.9833 219.743 18.8281 216.607C23.4062 213.643 24.8704 206.587 22.6527 204.35C21.4834 203.171 19.0531 203.097 17.8721 204.159C16.2507 205.617 17.1323 209.083 18.2548 211.053C20.8087 215.538 26.8761 216.258 28.1985 216.415C39.4917 217.757 48.5752 205.935 49.616 204.542" stroke="#8C5053" stroke-width="3.7864" stroke-miterlimit="10" stroke-linecap="round" stroke-linejoin="round"/>
<path d="M346.021 260.844C346.862 260.165 348.855 258.764 351.375 258.929C356.397 259.258 360.328 265.592 359.024 268.121C357.969 270.17 353.003 270.648 351.758 268.887C349.972 266.36 355.432 258.636 361.319 254.333C367.247 250 373.586 249.152 377 248.971" stroke="#8C5053" stroke-width="3.7864" stroke-miterlimit="10" stroke-linecap="round" stroke-linejoin="round"/>
<path d="M204.894 40.231C206.443 40.7796 214.865 43.6067 220.957 39.0819C223.407 37.2623 226.777 33.2906 225.546 30.6557C224.715 28.8754 221.825 27.795 220.192 28.7406C218.336 29.8157 218.508 33.276 219.045 35.2517C220.576 40.8962 227.716 44.1796 233.196 44.827C239.783 45.6051 244.943 42.6878 246.964 41.3801" stroke="#8C5053" stroke-width="3.7864" stroke-miterlimit="10" stroke-linecap="round" stroke-linejoin="round"/>
<path d="M350.557 158.933C348.048 158.718 345.59 161.816 344.664 164.343C343.713 166.938 343.41 171.57 346.629 173.688C349.487 175.568 353.656 174.5 355.468 172.212C358.791 168.018 354.552 159.275 350.557 158.933Z" stroke="#603813" stroke-width="3.7864" stroke-miterlimit="10" stroke-linecap="round" stroke-linejoin="round"/>
<path d="M65.611 139.5C61.3218 138.523 56.902 140.144 54.3966 143.584C52.1223 146.706 51.7037 150.945 53.3772 154.304C55.8447 159.256 62.7852 162.147 66.6304 159.409C69.619 157.28 71.1059 151.489 68.1597 148.689C65.8405 146.484 61.2034 146.539 57.965 149.71" stroke="#603813" stroke-width="3.7864" stroke-miterlimit="10" stroke-linecap="round" stroke-linejoin="round"/>
<path d="M343.918 148.431C343.918 148.431 340.093 131.195 338.946 91.7456C337.798 52.2958 340.475 38.5073 340.475 38.5073C340.475 38.5073 346.977 36.5922 359.98 36.9754C359.98 36.9754 352.331 121.237 353.861 148.431H348.889" stroke="#603813" stroke-width="3.7864" stroke-miterlimit="10" stroke-linecap="round" stroke-linejoin="round"/>
<path d="M49.8071 126.216L57.4563 121.62C53.6317 112.811 51.2794 94.3421 55.544 87.1492C62.8106 74.8929 68.9301 55.7424 67.7827 40.0392C67.057 30.1074 55.544 -9.36907 22.2701 5.18542C-11.0039 19.7399 10.7963 62.6366 10.7963 62.6366L25.712 53.0614C25.712 53.0614 12.7086 25.8678 25.712 19.7395C38.7155 13.6112 47.2722 26.8264 50.4519 34.9649C53.6317 43.1033 53.8301 62.9102 44.3607 79.4343C34.8913 95.9585 38.827 113.577 45.4645 128.323" stroke="#603813" stroke-width="3.7864" stroke-miterlimit="10" stroke-linecap="round" stroke-linejoin="round"/>
<path d="M124.769 75.2761C123.73 75.6601 121.743 76.5559 119.994 78.5361C117.715 81.1155 117.231 83.958 117.103 85.0504C114.321 84.2723 111.686 85.5732 110.96 87.5837C110.273 89.4814 111.528 91.343 111.682 91.5648C111.923 93.7363 112.164 95.9075 112.405 98.0791C111.774 99.2432 110.951 101.097 110.598 103.507C110.184 106.335 110.604 108.657 110.96 110.022C108.998 111.787 106.176 111.848 104.455 110.384C103.172 109.292 102.632 107.465 103.009 105.679C101.443 104.444 100.733 102.448 101.202 100.612C101.779 98.3534 103.854 97.454 104.093 97.3548C101.602 98.1758 98.9379 97.6243 97.2268 95.9071C95.5751 94.2498 95.4385 92.1349 95.4199 91.5643C90.1174 88.8931 89.401 85.7156 89.2766 85.05C88.2847 79.7459 94.6527 72.3119 106.261 69.4884C102.202 66.9822 99.9641 62.7447 100.479 58.6313C100.581 57.8168 101.072 54.0094 104.455 52.117C107.574 50.3719 110.819 51.5619 111.321 51.7553C111.489 51.1791 112.152 49.1621 114.212 47.7742C116.613 46.1562 119.134 46.5919 119.632 46.6887C119.773 44.5142 120.688 43.455 121.078 43.0698C123.225 40.9463 127.812 41.094 131.919 44.1553C131.604 43.4529 130.788 41.3849 131.558 39.0887C131.78 38.4264 132.129 37.3853 133.004 36.9171C134.422 36.1581 136.829 37.1195 138.786 39.4505C138.992 38.9394 139.757 37.2178 141.677 36.1933C141.848 36.1022 144.349 34.8148 146.736 35.8316C146.736 35.8316 147.45 36.1358 150.35 39.0887C151.183 38.9398 153.403 38.6606 155.77 39.8126C159.296 41.5282 160.314 45.0366 160.468 45.6031C161.899 45.7576 164.029 45.9976 166.611 46.3269C172.212 47.0411 175.012 47.3979 176.007 47.7746C182.724 50.3156 185.263 58.7721 185.764 60.4412C187.518 66.2798 186.472 71.3525 185.764 73.8316C186.581 73.8069 190.132 73.7879 192.631 76.3649C195.535 79.3595 195.856 84.6612 192.992 89.0314C193.525 89.0209 196.49 89.0124 198.412 91.203C200.537 93.6251 200.54 97.77 198.051 100.974C198.994 101.492 201.68 103.126 202.026 105.679C202.499 109.162 198.529 113.719 191.699 114.726C191.804 114.203 192.155 112.144 190.934 110.13C189.201 107.27 185.86 107.077 185.58 107.066C186.576 106.451 188.067 105.368 189.405 103.619C190.988 101.549 192.921 97.8056 191.7 96.3421C190.969 95.4669 189.473 95.8387 188.656 94.4602C188.401 94.0297 188.49 93.897 188.258 93.2779C187.71 91.8176 186.524 90.713 185.58 90.2137C184.457 89.6194 183.287 89.678 181.067 90.117C176.946 90.9319 175.939 91.7262 172.577 92.5116C169.017 93.3426 166.886 93.8088 165.166 92.6503C163.634 91.6186 163.771 90.2048 162.275 89.7553C160.678 89.275 159.744 90.6673 157.578 90.8409C155.271 91.0254 153.438 89.6902 152.518 89.0314C148.914 86.4508 148.367 82.1242 148.182 80.7077C147.825 77.9745 148.343 75.6629 148.865 74.1274C142.831 76.392 140.669 78.8157 139.87 80.7077C139.526 81.5217 138.641 84.1222 136.617 84.6887C135.932 84.8805 135.501 84.7312 135.172 85.0504C134.61 85.5958 134.71 87.1508 136.979 91.2026C136.247 91.3046 134.098 91.5045 132.036 90.2133C129.694 88.747 128.387 85.9365 128.594 82.9363C127.905 82.2456 127.047 81.2369 126.299 79.8721C125.311 78.0675 124.93 76.3924 124.769 75.2761Z" fill="#BB938B"/>
<path d="M184.05 128.898C182.921 129.879 181.863 130.633 180.99 131.196C182.304 132.58 184.38 132.883 185.962 131.962C187.394 131.128 188.167 129.44 187.875 127.748C188.84 127.597 190.468 127.17 191.699 125.833C193.817 123.534 193.919 119.452 191.699 115.875C191.483 116.659 189.796 122.637 186.727 126.217C185.536 127.606 184.05 128.897 184.05 128.898Z" fill="#BB938B"/>
<path d="M83.0811 251.843C84.2095 259.179 85.1477 267.114 85.7582 275.59C86.2927 283.012 86.5186 290.052 86.523 296.656C96.1342 300.475 110.12 304.82 127.446 306.231C143.529 307.54 157.104 305.882 166.839 303.933C167.043 302.624 167.407 300.456 167.987 297.804C170.023 288.493 171.961 285.866 174.488 275.973C175.997 270.069 175.541 270.054 176.783 266.398C178.756 260.59 181.373 256.193 183.285 253.375C173.348 254.33 162.88 255.003 151.923 255.29C126.659 255.953 103.556 254.435 83.0811 251.843Z" fill="#CF9490"/>
<path d="M73.5196 239.97C73.1919 244.815 73.263 252.709 76.1967 261.801C78.8722 270.094 82.8762 276.121 85.7582 279.803C85.2483 272.271 84.7384 264.738 84.2285 257.205C82.9679 255.856 81.675 254.329 80.4039 252.609C77.0674 248.096 74.9236 243.665 73.5196 239.97Z" fill="#CF9490"/>
<path d="M72.9458 237.863C74.1587 241.432 75.9599 245.665 78.6827 250.12C80.1983 252.599 81.7651 254.764 83.2722 256.631" stroke="#603813" stroke-width="3.7864" stroke-miterlimit="10" stroke-linecap="round" stroke-linejoin="round"/>
<path d="M88.6265 252.418C102.734 253.739 118.084 254.605 134.521 254.715C150.219 254.82 164.926 254.222 178.504 253.184" stroke="#603813" stroke-width="3.7864" stroke-miterlimit="10" stroke-linecap="round" stroke-linejoin="round"/>
<path d="M94.3634 299.528C104.67 302.89 118.611 306.212 135.287 306.805C145.575 307.171 154.736 306.421 162.441 305.273" stroke="#603813" stroke-width="3.7864" stroke-miterlimit="10" stroke-linecap="round" stroke-linejoin="round"/>
<path d="M81.3599 238.629C82.9243 248.565 84.2354 259.045 85.1845 270.036C87.5008 296.858 87.2067 321.449 85.5671 343.191" stroke="#603813" stroke-width="3.7864" stroke-miterlimit="10" stroke-linecap="round" stroke-linejoin="round"/>
<path d="M55.7352 288.804C51.5279 306.422 47.3211 324.041 43.1139 341.659" stroke="#603813" stroke-width="3.7864" stroke-miterlimit="10" stroke-linecap="round" stroke-linejoin="round"/>
<path d="M83.2722 290.719C81.8508 290.845 79.7155 290.948 77.1527 290.719C67.9839 289.898 62.4478 285.636 53.0576 280.377C49.0334 278.124 43.2327 275.089 35.8469 271.951C40.4388 253.994 46.5486 239.976 51.5275 230.203C61.9448 209.756 69.0833 204.609 72.1802 202.627C74.2578 201.297 75.8424 200.542 90.5384 194.2C99.3023 190.418 106.646 187.275 111.956 185.008" stroke="#603813" stroke-width="3.7864" stroke-miterlimit="10" stroke-linecap="round" stroke-linejoin="round"/>
<path d="M115.016 183.476C117.584 186.852 122.248 191.99 129.55 195.349C145.092 202.5 160.989 196.257 168.178 193.434C173.102 191.5 180.442 187.924 188.066 181.178" stroke="#603813" stroke-width="3.7864" stroke-miterlimit="10" stroke-linecap="round" stroke-linejoin="round"/>
<path d="M123.048 178.114C126.121 182.502 129.418 184.844 131.845 186.157C144.206 192.848 159.326 186.554 168.56 182.71C174.809 180.11 179.597 177.17 182.711 175.05" stroke="#603813" stroke-width="3.7864" stroke-miterlimit="10" stroke-linecap="round" stroke-linejoin="round"/>
<path d="M190.743 180.795C192.655 181.433 194.567 182.071 196.48 182.709" stroke="#603813" stroke-width="3.7864" stroke-miterlimit="10" stroke-linecap="round" stroke-linejoin="round"/>
<path d="M112.339 97.6822C114.085 97.1853 117.597 96.4372 121.9 97.299C126.021 98.1244 128.886 100.029 130.314 101.129" stroke="#603813" stroke-width="3.7864" stroke-miterlimit="10" stroke-linecap="round" stroke-linejoin="round"/>
<path d="M134.522 102.661C135.328 103.789 137.032 106.503 137.199 110.322C137.447 115.998 134.113 119.849 133.374 120.663C135.032 122.195 136.689 123.727 138.346 125.259" stroke="#603813" stroke-width="3.7864" stroke-miterlimit="10" stroke-linecap="round" stroke-linejoin="round"/>
<path d="M157.469 105.342C157.342 107.257 157.214 109.173 157.087 111.088" stroke="#603813" stroke-width="3.7864" stroke-miterlimit="10" stroke-linecap="round" stroke-linejoin="round"/>
<path d="M123.048 105.725C122.92 108.023 122.793 110.321 122.665 112.619" stroke="#603813" stroke-width="3.7864" stroke-miterlimit="10" stroke-linecap="round" stroke-linejoin="round"/>
<path d="M153.262 99.9795C155.434 99.3943 157.864 98.8567 160.529 98.4482C163.897 97.9317 166.987 97.7218 169.708 97.6826" stroke="#603813" stroke-width="3.7864" stroke-miterlimit="10" stroke-linecap="round" stroke-linejoin="round"/>
<path d="M185.389 117.982C185.168 115.322 183.935 113.47 182.711 113.386C181.113 113.276 179.907 116.21 179.652 116.833C178.467 119.717 178.637 123.582 180.034 124.11C180.901 124.438 182.127 123.437 182.711 122.578C183.909 120.818 183.528 118.021 181.564 115.684" stroke="#603813" stroke-width="3.7864" stroke-miterlimit="10" stroke-linecap="round" stroke-linejoin="round"/>
<path d="M184.624 106.874C186.188 107.06 189.094 107.659 190.743 109.938C193.992 114.43 189.653 121.707 188.448 123.727C185.147 129.263 180.202 132.032 177.357 133.302" stroke="#603813" stroke-width="3.7864" stroke-miterlimit="10" stroke-linecap="round" stroke-linejoin="round"/>
<path d="M110.809 116.45C112.264 126.245 115.09 133.768 117.311 138.664C120.926 146.635 124.358 153.949 132.227 158.964C134.643 160.504 138.777 163.067 144.465 163.177C151.695 163.317 156.888 159.407 160.529 156.666C169.939 149.58 174.064 140.059 175.827 134.835" stroke="#603813" stroke-width="3.7864" stroke-miterlimit="10" stroke-linecap="round" stroke-linejoin="round"/>
<path d="M140.641 145.175C140.311 145.2 138.946 145.303 138.346 144.409C137.739 143.505 138.255 142.087 139.111 141.345C139.983 140.589 141.228 140.52 142.17 140.962C142.776 141.246 143.694 141.946 143.7 142.877C143.709 144.165 141.963 145.076 140.641 145.175Z" stroke="#603813" stroke-width="3.7864" stroke-miterlimit="10" stroke-linecap="round" stroke-linejoin="round"/>
<path d="M135.286 160.496C135.286 164.198 135.286 167.901 135.286 171.603C135.286 174.412 135.286 177.22 135.286 180.029" stroke="#603813" stroke-width="3.7864" stroke-miterlimit="10" stroke-linecap="round" stroke-linejoin="round"/>
<path d="M174.297 139.047C173.856 143.334 173.671 148.674 174.297 154.75C175.014 161.7 176.578 167.534 178.122 171.986" stroke="#603813" stroke-width="3.7864" stroke-miterlimit="10" stroke-linecap="round" stroke-linejoin="round"/>
<path d="M124.578 180.029C125.962 180.015 128.409 179.805 131.079 178.497C133.048 177.533 134.428 176.32 135.286 175.433" stroke="#603813" stroke-width="3.7864" stroke-miterlimit="10" stroke-linecap="round" stroke-linejoin="round"/>
<path d="M149.437 73.1696C149.166 73.6592 146.094 79.4356 149.055 85.0427C149.696 86.2562 151.901 89.8892 156.321 90.7879C160.231 91.5826 163.248 89.7051 163.971 89.256C164.586 88.8733 167.892 86.8166 167.413 85.0427C167.017 83.5784 164.118 82.5883 162.823 83.5109C161.096 84.7417 161.636 89.7998 163.971 91.937C166.935 94.6512 173.657 93.4458 180.417 88.4901" stroke="#8C5053" stroke-width="3.7864" stroke-miterlimit="10" stroke-linecap="round" stroke-linejoin="round"/>
<path d="M181.564 90.4051C183.719 89.5534 186.027 89.8496 187.301 91.171C189.759 93.7218 187.375 99.0619 185.771 99.2144C184.832 99.3035 183.59 97.6688 183.859 96.5334C184.298 94.6771 188.958 93.3839 190.743 95.0016C192.246 96.3627 192.081 100.118 189.214 103.428" stroke="#8C5053" stroke-width="3.7864" stroke-miterlimit="10" stroke-linecap="round" stroke-linejoin="round"/>
<path d="M140.258 53.6359C138.862 53.2584 134.937 52.4079 131.08 54.4019C125.452 57.3111 123.173 64.6168 124.96 69.7223C125.192 70.3859 126.568 74.3139 129.55 74.7015C132.682 75.1086 136.295 71.4407 135.669 68.9564C135.165 66.9568 131.875 65.5596 129.55 66.2754C125.608 67.4892 123.326 75.1203 126.108 80.0635C127.775 83.0269 131.678 85.7642 134.904 84.6596C136.88 83.983 138.752 81.8135 138.346 80.0635C137.836 77.8632 133.781 76.5729 131.462 77.7653C128.329 79.3761 127.609 85.9058 130.697 89.2556C132.511 91.2229 135.091 91.5 136.051 91.5538" stroke="#8C5053" stroke-width="3.7864" stroke-miterlimit="10" stroke-linecap="round" stroke-linejoin="round"/>
<path d="M109.28 91.937C108.925 91.3248 107.562 88.8368 108.515 86.9578C110.266 83.5011 118.619 84.5329 119.224 86.5746C119.587 87.801 117.336 90.0054 116.164 89.6388C114.611 89.1532 114.042 83.873 116.164 80.0635C117.536 77.6018 119.689 76.3677 120.753 75.8502" stroke="#8C5053" stroke-width="3.7864" stroke-miterlimit="10" stroke-linecap="round" stroke-linejoin="round"/>
<path d="M100.865 72.4037C99.3152 72.2415 95.59 72.076 92.0685 74.3188C87.8754 76.9892 83.8043 83.1807 86.3316 88.1069C88.3558 92.0527 93.944 93.8812 97.8054 92.3202C99.7569 91.5312 101.971 89.5914 101.63 88.1069C101.167 86.0947 95.9464 84.6612 93.5981 86.575C90.9711 88.7163 91.4761 95.426 95.5104 97.6822C97.9363 99.0388 101.279 98.5849 103.924 96.5331" stroke="#8C5053" stroke-width="3.7864" stroke-miterlimit="10" stroke-linecap="round" stroke-linejoin="round"/>
<path d="M98.188 99.9804C98.0793 100.294 96.9302 103.779 98.9528 106.109C99.9193 107.222 101.935 108.446 103.16 107.641C104.278 106.905 104.529 104.614 103.543 103.811C102.956 103.333 101.935 103.381 101.248 103.811C99.4441 104.937 98.9116 109.334 101.248 111.471C102.668 112.77 104.91 113.016 106.985 112.237" stroke="#8C5053" stroke-width="3.7864" stroke-miterlimit="10" stroke-linecap="round" stroke-linejoin="round"/>
<path d="M103.16 68.1904C102.736 67.9468 97.2736 64.6897 97.0405 58.6151C97.015 57.9544 96.8813 52.0935 101.248 49.8058C105.202 47.7338 110.593 49.7742 112.339 53.2527C113.661 55.8872 112.985 59.5292 111.956 59.7638C110.903 60.0042 108.848 56.817 108.514 53.6355C108.244 51.0557 109.008 47.5549 111.574 45.5925C116.477 41.8421 125.281 45.7584 125.725 49.0395C125.962 50.7902 123.908 53.0205 122.283 52.8696C119.229 52.5855 115.71 43.7123 118.841 40.6133C120.597 38.8751 124.495 39.3068 128.02 41.3792" stroke="#8C5053" stroke-width="3.7864" stroke-miterlimit="10" stroke-linecap="round" stroke-linejoin="round"/>
<path d="M166.648 44.4438C170.119 40.9581 173.193 40.3572 174.68 40.2305C184.48 39.3962 195.6 50.6442 194.568 61.2961C194.176 65.3415 192.101 68.4765 190.361 70.4882C190.964 70.0104 193.948 67.7462 197.245 68.5732C201.48 69.6353 203.304 75.0612 202.982 78.9144C202.81 80.9731 202.028 82.5616 201.452 83.5104C202.466 83.5319 205.251 83.735 207.189 85.8087C210.053 88.8716 209.124 93.9358 207.189 96.9158C205.977 98.7819 204.375 99.8254 203.365 100.363" stroke="#8C5053" stroke-width="3.7864" stroke-miterlimit="10" stroke-linecap="round" stroke-linejoin="round"/>
<path d="M205.659 103.044C205.968 103.533 208.47 107.617 206.806 111.853C205.145 116.085 200.009 118.734 194.568 117.599C196.522 119.772 196.966 122.845 195.715 125.259C194.23 128.126 191.084 128.654 190.743 128.706C190.82 129.129 191.241 131.662 189.596 133.685C187.919 135.747 184.786 136.431 181.947 135.217" stroke="#8C5053" stroke-width="3.7864" stroke-miterlimit="10" stroke-linecap="round" stroke-linejoin="round"/>
<path d="M130.697 40.9969C129.441 37.9505 130.016 34.9746 131.462 34.1026C133.13 33.0967 136.857 34.3474 138.729 38.3159C139.022 38.6942 140.837 41.0636 140.258 41.7628C139.724 42.4078 137.084 41.7171 136.434 40.2309C135.417 37.9064 138.71 32.3567 143.318 32.1876C146.589 32.0678 149.306 34.7039 150.202 37.1668C150.725 38.6036 150.885 40.6857 150.202 40.9969C149.48 41.3262 147.534 39.7964 147.525 38.3159C147.51 35.8069 153.048 31.9258 157.469 33.7198C160.289 34.8641 162.129 38.1039 162.058 41.7632" stroke="#8C5053" stroke-width="3.7864" stroke-miterlimit="10" stroke-linecap="round" stroke-linejoin="round"/>
<path d="M135.286 168.539C137.735 169.305 142.621 170.432 148.29 168.922C159.945 165.816 164.432 154.356 164.927 153.027C162.212 155.894 159.604 157.864 157.66 159.155C154.485 161.265 152.089 162.856 148.481 163.369C145.466 163.797 142.962 163.28 141.597 162.985C138.94 162.413 136.867 161.456 135.478 160.687C135.414 163.304 135.35 165.922 135.286 168.539Z" fill="#603813"/>
<path d="M220.766 246.864C221.904 250.951 223.562 254.167 224.973 256.44C229.506 256.724 246.324 257.236 259.012 245.332C262.526 242.035 264.963 238.499 266.661 235.374C262.108 237.511 250.869 242.009 236.83 239.587C229.214 238.273 223.372 235.371 219.619 233.076C219.29 236.229 219.179 241.162 220.766 246.864Z" fill="#BB938B"/>
<path d="M237.594 348.362C240.014 351.281 250.126 347.1 254.422 344.915C258.904 342.634 261.788 340.116 262.454 339.553C267.577 335.211 277.891 330.831 300.7 330.743C299.68 327.424 298.66 324.104 297.64 320.785C295.106 318.751 278.311 305.617 264.366 311.593C260.632 313.194 258.001 316.129 252.892 321.934C250.576 324.566 233.839 343.831 237.594 348.362Z" fill="#BB938B"/>
<path d="M301.082 279.037C303.632 274.441 306.182 269.845 308.731 265.249C310.911 272.982 310.839 279.181 310.261 283.633C309.01 293.275 304.142 304.314 304.142 304.316C304.142 304.319 303.851 296.586 302.994 289.761C302.673 287.203 302.113 283.507 301.082 279.037Z" fill="#BB938B"/>
<path d="M195.524 277.122C194.79 279.204 191.828 288.345 196.289 298.187C199.348 304.939 204.351 308.604 206.615 310.061C205.834 307.373 205.112 304.156 204.703 300.485C204.154 295.574 204.322 291.269 204.703 287.846C203.492 286.906 202.189 285.769 200.878 284.399C198.421 281.832 196.708 279.257 195.524 277.122Z" fill="#BB938B"/>
<path d="M223.443 184.051C222.558 191.443 221.782 199.107 221.148 207.031C220.407 216.292 219.912 225.238 219.618 233.842C222.483 233.417 226.423 232.5 230.71 230.395C236.792 227.409 240.753 223.415 242.948 220.82C242.693 216.607 242.438 212.394 242.183 208.18C239.645 206.568 236.686 204.337 233.769 201.286C227.768 195.008 224.869 188.312 223.443 184.051Z" fill="#CF9490"/>
<path d="M266.279 211.245C266.151 214.181 266.024 217.117 265.896 220.054C273.29 223.118 280.684 226.182 288.079 229.246C289.981 223.446 291.828 215.771 292.286 206.648C293.068 191.071 289.435 178.562 286.549 171.029C286.82 180.594 284.698 187.871 283.107 192.094C281.197 197.166 278.945 202.923 273.163 207.415C270.551 209.443 268.02 210.592 266.279 211.245Z" fill="#CF9490"/>
<path d="M185.197 315.04C188.764 317.874 192.49 321.055 196.289 324.615C199.34 327.475 202.14 330.299 204.703 333.041C205.213 326.785 205.722 320.53 206.232 314.274C205.149 315.774 203.351 316.524 201.643 316.189C199.669 315.801 198.72 314.14 198.583 313.891C198.018 314.439 195.196 317.06 190.934 316.955C188.078 316.884 186.033 315.625 185.197 315.04Z" fill="#CF9490"/>
<path d="M310.738 206.09C311.243 196.828 311.747 187.567 312.252 178.305C313.077 178.63 314.253 179.221 315.278 180.326C317.884 183.133 317.548 187.139 317.296 191.44C317.083 195.079 316.839 200.494 316.791 207.606" stroke="#603813" stroke-width="3.7864" stroke-miterlimit="10" stroke-linecap="round" stroke-linejoin="round"/>
<path d="M309.688 209.904C308.842 213.675 307.879 220.354 309.688 228.288C310.902 233.616 312.965 237.751 314.66 240.544" stroke="#603813" stroke-width="3.7864" stroke-miterlimit="10" stroke-linecap="round" stroke-linejoin="round"/>
<path d="M330.723 242.843C332.268 240.987 334.176 238.184 335.312 234.417C336.1 231.802 336.259 229.615 336.459 226.756C336.69 223.473 336.6 220.711 336.459 218.713" stroke="#603813" stroke-width="3.7864" stroke-miterlimit="10" stroke-linecap="round" stroke-linejoin="round"/>
<path d="M320.779 226.373C322.123 226.995 324.184 228.147 326.133 230.203C327.556 231.704 328.873 233.094 329.193 235.183C329.731 238.699 327.036 241.546 326.516 242.077" stroke="#603813" stroke-width="3.7864" stroke-miterlimit="10" stroke-linecap="round" stroke-linejoin="round"/>
<path d="M308.54 218.33C309.348 217.035 310.907 214.914 313.554 213.136C316.791 210.96 319.957 210.439 321.544 210.287C321.785 210.504 322.134 210.882 322.309 211.436C322.465 211.93 322.536 212.73 321.863 213.989C320.225 217.052 316.995 217.566 316.572 219.479C316.37 220.394 316.743 221.931 320.014 224.458" stroke="#603813" stroke-width="3.7864" stroke-miterlimit="10" stroke-linecap="round" stroke-linejoin="round"/>
<path d="M318.867 205.308C320.271 204.711 323.688 203.485 328.045 204.158C332.707 204.879 335.724 207.353 336.842 208.372C337.48 210.797 338.117 213.223 338.754 215.649C336.842 218.074 334.93 220.5 333.018 222.926C328.81 222.415 324.603 221.905 320.396 221.394C321.289 219.224 322.181 217.053 323.073 214.883" stroke="#603813" stroke-width="3.7864" stroke-miterlimit="10" stroke-linecap="round" stroke-linejoin="round"/>
<path d="M324.604 205.691C325.368 206.84 326.133 207.989 326.898 209.138C327.663 211.181 328.428 213.223 329.193 215.266C327.664 217.564 326.134 219.862 324.604 222.16" stroke="#603813" stroke-width="3.7864" stroke-miterlimit="10" stroke-linejoin="round"/>
<path d="M330.723 206.457C331.36 207.35 331.997 208.244 332.635 209.138C333.145 211.436 333.655 213.734 334.165 216.032C332.635 218.33 331.105 220.628 329.575 222.926" stroke="#603813" stroke-width="3.7864" stroke-miterlimit="10" stroke-linejoin="round"/>
<path d="M316.189 243.225C316.087 257.542 315.286 268.965 314.66 276.164C311.356 314.131 304.101 335.842 316.189 348.17C318.16 350.179 320.119 351.403 321.162 352C324.012 350.22 327.976 347.218 331.106 342.425C338.087 331.73 336.186 319.358 335.313 312.933C333.101 296.65 331.675 275.674 331.106 246.672" stroke="#603813" stroke-width="3.7864" stroke-miterlimit="10" stroke-linecap="round" stroke-linejoin="round"/>
<path d="M305.863 312.167C305.849 317.617 307.393 329.019 310.07 335.914C310.691 337.513 309.79 334.296 310.07 335.914" stroke="#603813" stroke-width="3.7864" stroke-miterlimit="10" stroke-linecap="round" stroke-linejoin="round"/>
<path d="M179.652 319.444C178.801 324.878 177.483 330.95 175.444 337.446C174.369 340.872 173.204 344.065 172.002 347.021" stroke="#603813" stroke-width="3.7864" stroke-miterlimit="10" stroke-linecap="round" stroke-linejoin="round"/>
<path d="M242.375 208.372C242.915 212.494 243.26 217.26 243.14 222.543C243.058 226.148 242.771 229.481 242.375 232.501" stroke="#603813" stroke-width="3.7864" stroke-miterlimit="10" stroke-linecap="round" stroke-linejoin="round"/>
<path d="M245.052 216.415C246.531 218.271 248.327 219.119 249.259 219.479C250.756 219.247 251.936 218.938 252.701 218.713C256.781 217.513 259.644 215.9 262.645 214.117C263.073 213.863 266.63 211.75 266.47 211.436C266.363 211.227 264.717 212.049 262.645 212.585C259.528 213.393 256.993 213.156 254.996 212.969C249.557 212.46 245.271 210.319 242.948 208.947C242.864 209.757 242.583 213.318 245.052 216.415Z" fill="#603813"/>
<path d="M240.463 223.692C238.786 225.277 236.636 227.035 233.961 228.671C229.165 231.604 224.606 232.972 221.34 233.651" stroke="#603813" stroke-width="3.7864" stroke-miterlimit="10" stroke-linecap="round" stroke-linejoin="round"/>
<path d="M223.635 235.948C228.127 237.84 234.39 239.795 241.993 240.162C260.926 241.075 274.782 231.491 279.473 227.905" stroke="#603813" stroke-width="3.7864" stroke-miterlimit="10" stroke-linecap="round" stroke-linejoin="round"/>
<path d="M210.631 122.578C207.752 124.329 203.739 127.316 200.687 132.153C195.189 140.864 196.113 150.331 196.48 155.517C197.66 172.212 196.351 191.157 193.42 204.159C188.63 225.409 179.351 231.472 181.946 248.205C182.932 254.558 185.178 259.544 186.918 262.759" stroke="#603813" stroke-width="3.7864" stroke-miterlimit="10" stroke-linecap="round" stroke-linejoin="round"/>
<path d="M193.038 239.779C192.326 242.451 191.496 246.948 192.273 252.418C193.254 259.327 196.288 264.207 198.01 266.589" stroke="#603813" stroke-width="3.7864" stroke-miterlimit="10" stroke-linecap="round" stroke-linejoin="round"/>
<path d="M204.512 246.673C204.273 248.356 203.596 254.599 207.571 260.461C209.88 263.865 212.782 265.704 214.456 266.589" stroke="#603813" stroke-width="3.7864" stroke-miterlimit="10" stroke-linecap="round" stroke-linejoin="round"/>
<path d="M224.399 157.432C224.243 172.725 223.132 185.118 222.104 193.818C220.717 205.564 220.287 214.926 219.427 233.651C219.291 236.613 219.102 241.678 220.957 247.822C223.104 254.934 226.945 260.035 229.754 263.142" stroke="#603813" stroke-width="3.7864" stroke-miterlimit="10" stroke-linecap="round" stroke-linejoin="round"/>
<path d="M285.975 164.326C287.488 174.094 286.041 181.74 284.828 186.157C283.067 192.569 279.535 205.433 268 210.67C261.83 213.471 256.092 212.854 253.849 212.585C241.981 211.161 234.793 202.545 231.666 198.797C229.237 195.885 225.576 190.721 223.252 183.094" stroke="#603813" stroke-width="3.7864" stroke-miterlimit="10" stroke-linecap="round" stroke-linejoin="round"/>
<path d="M266.47 211.436C266.076 213.126 265.75 215.195 265.705 217.564C265.626 221.735 266.451 225.17 267.234 227.522" stroke="#603813" stroke-width="3.7864" stroke-miterlimit="10" stroke-linecap="round" stroke-linejoin="round"/>
<path d="M268.382 221.777C270.353 222.827 272.65 223.893 275.266 224.841C277.019 225.477 278.686 225.977 280.238 226.373" stroke="#603813" stroke-width="3.7864" stroke-miterlimit="10" stroke-linecap="round" stroke-linejoin="round"/>
<path d="M270.868 126.216C272.374 127.572 277.141 132.207 278.528 140.004C279.883 147.621 277.166 153.498 276.23 155.325" stroke="#603813" stroke-width="3.7864" stroke-miterlimit="10" stroke-linecap="round" stroke-linejoin="round"/>
<path d="M263.333 131.034C264.245 133.065 265.91 137.528 265.262 143.234C264.375 151.044 259.748 155.936 258.277 157.376" stroke="#603813" stroke-width="3.7864" stroke-miterlimit="10" stroke-linecap="round" stroke-linejoin="round"/>
<path d="M248.494 131.387C249.024 133.955 250.235 141.537 246.199 149.388C244.074 153.522 241.262 156.238 239.315 157.814" stroke="#603813" stroke-width="3.7864" stroke-miterlimit="10" stroke-linecap="round" stroke-linejoin="round"/>
<path d="M234.726 140.579C234.032 144.716 232.79 149.722 230.519 155.134C229.311 158.011 227.996 160.565 226.694 162.794" stroke="#603813" stroke-width="3.7864" stroke-miterlimit="10" stroke-linecap="round" stroke-linejoin="round"/>
<path d="M264.94 150.92C265.867 150.755 266.89 150.617 268 150.537C269.554 150.425 270.969 150.448 272.207 150.537" stroke="#603813" stroke-width="3.7864" stroke-miterlimit="10" stroke-linecap="round" stroke-linejoin="round"/>
<path d="M235.491 153.984C236.108 153.527 237.28 152.787 238.933 152.452C240.412 152.153 241.647 152.306 242.375 152.452" stroke="#603813" stroke-width="3.7864" stroke-miterlimit="10" stroke-linecap="round" stroke-linejoin="round"/>
<path d="M240.845 164.326C240.845 166.624 240.845 168.922 240.845 171.22" stroke="#603813" stroke-width="3.7864" stroke-miterlimit="10" stroke-linecap="round" stroke-linejoin="round"/>
<path d="M271.442 162.794C271.442 165.347 271.442 167.9 271.442 170.454" stroke="#603813" stroke-width="3.7864" stroke-miterlimit="10" stroke-linecap="round" stroke-linejoin="round"/>
<path d="M256.908 165.475C256.693 166.165 256.45 167.236 256.525 168.539C256.563 169.179 256.694 170.171 257.29 171.603C258.651 174.873 261.398 177.943 262.262 178.88C260.733 180.795 259.203 182.71 257.673 184.625" stroke="#603813" stroke-width="3.7864" stroke-miterlimit="10" stroke-linecap="round" stroke-linejoin="round"/>
<path d="M251.554 195.349C252.591 195.739 254.498 196.301 256.908 196.115C259.679 195.901 261.683 194.811 262.645 194.2" stroke="#603813" stroke-width="3.7864" stroke-miterlimit="10" stroke-linecap="round" stroke-linejoin="round"/>
<path d="M219.045 113.769C219.517 109.077 221.167 106.025 222.487 104.193C228.688 95.594 242.792 92.8968 257.673 97.6822" stroke="#603813" stroke-width="3.7864" stroke-miterlimit="10" stroke-linecap="round" stroke-linejoin="round"/>
<path d="M267.617 101.129C271.718 102.572 278.039 105.497 283.68 111.47C286.18 114.118 293.535 121.906 294.007 133.685C294.214 138.855 293.024 143.034 292.094 145.558" stroke="#603813" stroke-width="3.7864" stroke-miterlimit="10" stroke-linecap="round" stroke-linejoin="round"/>
<path d="M291.329 158.198C291.711 160.621 292.324 164.216 293.242 168.539C295.235 177.929 296.695 181.461 299.361 191.519C302.281 202.536 303.741 208.044 303.951 213.734C304.239 221.54 302.857 227.952 301.656 232.119" stroke="#603813" stroke-width="3.7864" stroke-miterlimit="10" stroke-linecap="round" stroke-linejoin="round"/>
<path d="M176.592 267.738C175.451 273.048 174.313 277.264 173.532 279.994C169.86 292.832 168.034 293.955 167.795 300.294C167.704 302.705 167.881 304.849 166.648 307.571C164.794 311.663 161.488 313.23 162.058 314.465C162.672 315.796 166.979 314.999 167.795 314.848C170.769 314.298 172.983 313.051 174.297 312.167C174.287 312.544 174.238 315.997 176.592 317.529C179.885 319.673 184.412 315.8 184.624 315.614C187.098 313.442 188.495 309.815 187.684 309.103C187.003 308.506 184.382 309.617 183.859 311.401C183.248 313.487 185.769 315.582 187.301 316.381C190.796 318.201 194.82 316.08 195.715 315.615C196.952 314.972 197.841 314.224 198.392 313.7C198.572 314.005 199.532 315.565 201.452 315.998C203.257 316.405 205.2 315.654 206.424 314.083" stroke="#8C5053" stroke-width="3.7864" stroke-miterlimit="10" stroke-linecap="round" stroke-linejoin="round"/>
<path d="M194.95 275.781C196.22 278.32 198.047 281.28 200.687 284.208C201.585 285.203 202.486 286.094 203.364 286.889" stroke="#8C5053" stroke-width="3.7864" stroke-miterlimit="10" stroke-linecap="round" stroke-linejoin="round"/>
<path d="M206.806 278.079C205.726 281.794 204.685 286.748 204.511 292.634C204.289 300.149 205.565 306.358 206.806 310.635" stroke="#8C5053" stroke-width="3.7864" stroke-miterlimit="10" stroke-linecap="round" stroke-linejoin="round"/>
<path d="M206.424 318.295C205.982 322.801 205.474 327.398 204.894 332.084C204.196 337.722 203.426 343.214 202.599 348.553" stroke="#8C5053" stroke-width="3.7864" stroke-miterlimit="10" stroke-linecap="round" stroke-linejoin="round"/>
<path d="M238.932 340.127C243.886 333.027 254.553 318.174 260.733 313.699C261.842 312.896 264.542 310.941 265.705 311.784C266.457 312.329 266.288 313.843 266.087 314.848" stroke="#8C5053" stroke-width="3.7864" stroke-miterlimit="10" stroke-linecap="round" stroke-linejoin="round"/>
<path d="M309.305 263.908C307.01 267.993 304.716 272.079 302.421 276.164" stroke="#8C5053" stroke-width="3.7864" stroke-miterlimit="10" stroke-linecap="round" stroke-linejoin="round"/>
<path d="M296.684 264.291C299.483 271.761 301.081 278.356 302.038 283.442C303.115 289.164 304.636 297.246 303.95 307.571C303.431 315.392 302.182 316.425 302.038 323.274C301.87 331.28 303.409 337.813 304.715 342.042" stroke="#8C5053" stroke-width="3.7864" stroke-miterlimit="10" stroke-linecap="round" stroke-linejoin="round"/>
<path d="M334.165 266.589C337.112 275.304 337.678 280.378 337.607 283.442C337.573 284.891 337.372 287.021 338.372 289.57C339.555 292.585 341.54 293.945 341.049 294.932C340.768 295.496 339.681 295.933 336.077 295.315" stroke="#8C5053" stroke-width="3.7864" stroke-miterlimit="10" stroke-linecap="round" stroke-linejoin="round"/>
<path d="M305.48 307.188C305.982 308.184 307.132 308.667 308.158 308.336C309.116 308.028 309.758 307.077 309.687 306.039" stroke="#8C5053" stroke-width="3.7864" stroke-miterlimit="10" stroke-linecap="round" stroke-linejoin="round"/>
<path d="M282.151 227.139C288.264 229.018 295.527 231.878 303.186 236.331C307.074 238.592 310.51 240.94 313.512 243.225" stroke="#8C5053" stroke-width="3.7864" stroke-miterlimit="10" stroke-linecap="round" stroke-linejoin="round"/>
</svg>
